<svg width="32" height="32" viewBox="0 0 32 32" fill="none" xmlns="http://www.w3.org/2000/svg">
<path fill-rule="evenodd" clip-rule="evenodd" d="M22.8266 15.6261C22.1893 15.6261 21.672 15.1075 21.672 14.4715C21.672 13.8341 22.1893 13.3168 22.8266 13.3168C23.464 13.3168 23.9813 13.8341 23.9813 14.4715C23.9813 15.1075 23.464 15.6261 22.8266 15.6261ZM20.548 19.4661C19.9106 19.4661 19.3933 18.9475 19.3933 18.3101C19.3933 17.6741 19.9106 17.1555 20.548 17.1555C21.1853 17.1555 21.7026 17.6741 21.7026 18.3101C21.7026 18.9475 21.1853 19.4661 20.548 19.4661ZM19.764 24.2115H12.2373C11.6853 24.2115 11.2373 23.7635 11.2373 23.2115C11.2373 22.6595 11.6853 22.2115 12.2373 22.2115H19.764C20.316 22.2115 20.764 22.6595 20.764 23.2115C20.764 23.7635 20.316 24.2115 19.764 24.2115ZM10.284 18.3101C10.284 17.6741 10.8013 17.1555 11.4387 17.1555C12.076 17.1555 12.5933 17.6741 12.5933 18.3101C12.5933 18.9475 12.076 19.4661 11.4387 19.4661C10.8013 19.4661 10.284 18.9475 10.284 18.3101ZM9.16001 15.6261C8.52268 15.6261 8.00534 15.1075 8.00534 14.4715C8.00534 13.8341 8.52268 13.3168 9.16001 13.3168C9.79734 13.3168 10.3147 13.8341 10.3147 14.4715C10.3147 15.1075 9.79734 15.6261 9.16001 15.6261ZM13.7173 13.3168C14.3546 13.3168 14.872 13.8341 14.872 14.4715C14.872 15.1075 14.3546 15.6261 13.7173 15.6261C13.08 15.6261 12.5627 15.1075 12.5627 14.4715C12.5627 13.8341 13.08 13.3168 13.7173 13.3168ZM15.9933 17.1555C16.6306 17.1555 17.148 17.6741 17.148 18.3101C17.148 18.9475 16.6306 19.4661 15.9933 19.4661C15.356 19.4661 14.8386 18.9475 14.8386 18.3101C14.8386 17.6741 15.356 17.1555 15.9933 17.1555ZM18.2693 13.3168C18.9066 13.3168 19.424 13.8341 19.424 14.4715C19.424 15.1075 18.9066 15.6261 18.2693 15.6261C17.632 15.6261 17.1146 15.1075 17.1146 14.4715C17.1146 13.8341 17.632 13.3168 18.2693 13.3168ZM21.6386 8.54614H17.192V8.36081C17.164 6.40481 15.5573 4.82348 13.6133 4.82348H12.2693C11.904 4.82348 11.604 4.52881 11.6013 4.16348C11.596 3.61148 11.132 3.15948 10.592 3.17281C10.04 3.17814 9.59601 3.63014 9.60134 4.18214C9.61601 5.64481 10.8093 6.82348 12.2587 6.82348H13.5933C14.4026 6.80214 15.18 7.51948 15.192 8.37548V8.54614H10.3613C5.96134 8.54614 3.33334 11.1248 3.33334 15.4435V21.9408C3.32668 24.0248 3.95201 25.7581 5.14134 26.9515C6.36534 28.1795 8.16534 28.8275 10.3493 28.8275H21.6386C26.0386 28.8275 28.6666 26.2541 28.6666 21.9435V15.5448C28.6666 11.1621 26.0386 8.54614 21.6386 8.54614Z" fill="url(#paint0_linear_334_3)"/>
<defs>
<linearGradient id="paint0_linear_334_3" x1="5.5" y1="7" x2="32.5" y2="38.5" gradientUnits="userSpaceOnUse">
<stop stop-color="#4CA6FF"/>
<stop offset="1" stop-color="#F4DC73"/>
</linearGradient>
</defs>
</svg>
