<svg width="224" height="12" viewBox="0 0 224 12" fill="none" xmlns="http://www.w3.org/2000/svg">
<path d="M220.392 9.192C219.552 9.192 218.9 9.012 218.436 8.652C217.98 8.292 217.744 7.8 217.728 7.176H218.808C218.824 7.424 218.948 7.66 219.18 7.884C219.42 8.1 219.824 8.208 220.392 8.208C220.904 8.208 221.296 8.108 221.568 7.908C221.84 7.7 221.976 7.448 221.976 7.152C221.976 6.888 221.876 6.684 221.676 6.54C221.476 6.388 221.152 6.288 220.704 6.24L220.008 6.168C219.4 6.104 218.904 5.924 218.52 5.628C218.136 5.324 217.944 4.9 217.944 4.356C217.944 3.948 218.048 3.6 218.256 3.312C218.464 3.016 218.752 2.792 219.12 2.64C219.488 2.48 219.912 2.4 220.392 2.4C221.112 2.4 221.696 2.56 222.144 2.88C222.592 3.2 222.824 3.676 222.84 4.308H221.76C221.752 4.052 221.632 3.836 221.4 3.66C221.176 3.476 220.84 3.384 220.392 3.384C219.944 3.384 219.604 3.476 219.372 3.66C219.14 3.844 219.024 4.076 219.024 4.356C219.024 4.596 219.104 4.788 219.264 4.932C219.432 5.076 219.704 5.168 220.08 5.208L220.776 5.28C221.464 5.352 222.016 5.544 222.432 5.856C222.848 6.16 223.056 6.592 223.056 7.152C223.056 7.552 222.94 7.908 222.708 8.22C222.484 8.524 222.172 8.764 221.772 8.94C221.372 9.108 220.912 9.192 220.392 9.192Z" fill="#949497"/>
<path d="M212.695 9.216C212.239 9.216 211.819 9.132 211.435 8.964C211.051 8.796 210.715 8.56 210.427 8.256C210.147 7.952 209.927 7.6 209.767 7.2C209.615 6.8 209.539 6.368 209.539 5.904V5.688C209.539 5.232 209.615 4.804 209.767 4.404C209.919 4.004 210.131 3.652 210.403 3.348C210.683 3.044 211.011 2.808 211.387 2.64C211.771 2.464 212.195 2.376 212.659 2.376C213.147 2.376 213.591 2.48 213.991 2.688C214.391 2.888 214.719 3.204 214.975 3.636C215.231 4.068 215.375 4.628 215.407 5.316L214.927 4.548V0.240002H216.079V9H215.167V6.156H215.503C215.471 6.884 215.319 7.476 215.047 7.932C214.775 8.38 214.431 8.708 214.015 8.916C213.607 9.116 213.167 9.216 212.695 9.216ZM212.851 8.208C213.243 8.208 213.599 8.12 213.919 7.944C214.239 7.768 214.495 7.516 214.687 7.188C214.879 6.852 214.975 6.46 214.975 6.012V5.46C214.975 5.02 214.875 4.648 214.675 4.344C214.483 4.032 214.223 3.796 213.895 3.636C213.575 3.468 213.223 3.384 212.839 3.384C212.415 3.384 212.039 3.484 211.711 3.684C211.391 3.884 211.139 4.164 210.955 4.524C210.779 4.884 210.691 5.308 210.691 5.796C210.691 6.284 210.783 6.712 210.967 7.08C211.151 7.44 211.407 7.72 211.735 7.92C212.063 8.112 212.435 8.208 212.851 8.208Z" fill="#949497"/>
<path d="M202.343 9V2.592H203.255V5.34H203.111C203.111 4.708 203.195 4.176 203.363 3.744C203.539 3.304 203.803 2.972 204.155 2.748C204.507 2.516 204.951 2.4 205.487 2.4H205.535C206.343 2.4 206.939 2.652 207.323 3.156C207.715 3.66 207.911 4.388 207.911 5.34V9H206.759V5.1C206.759 4.604 206.619 4.208 206.339 3.912C206.059 3.608 205.675 3.456 205.187 3.456C204.683 3.456 204.275 3.612 203.963 3.924C203.651 4.236 203.495 4.652 203.495 5.172V9H202.343Z" fill="#949497"/>
<path d="M197.185 9.216C196.625 9.216 196.133 9.12 195.709 8.928C195.285 8.736 194.925 8.484 194.629 8.172C194.341 7.852 194.121 7.496 193.969 7.104C193.825 6.712 193.753 6.312 193.753 5.904V5.688C193.753 5.28 193.829 4.88 193.981 4.488C194.133 4.088 194.357 3.732 194.653 3.42C194.949 3.1 195.309 2.848 195.733 2.664C196.157 2.472 196.641 2.376 197.185 2.376C197.729 2.376 198.213 2.472 198.637 2.664C199.061 2.848 199.421 3.1 199.717 3.42C200.013 3.732 200.237 4.088 200.389 4.488C200.541 4.88 200.617 5.28 200.617 5.688V5.904C200.617 6.312 200.541 6.712 200.389 7.104C200.245 7.496 200.025 7.852 199.729 8.172C199.441 8.484 199.085 8.736 198.661 8.928C198.237 9.12 197.745 9.216 197.185 9.216ZM197.185 8.184C197.665 8.184 198.073 8.08 198.409 7.872C198.753 7.656 199.013 7.368 199.189 7.008C199.373 6.648 199.465 6.244 199.465 5.796C199.465 5.34 199.373 4.932 199.189 4.572C199.005 4.212 198.741 3.928 198.397 3.72C198.061 3.512 197.657 3.408 197.185 3.408C196.721 3.408 196.317 3.512 195.973 3.72C195.629 3.928 195.365 4.212 195.181 4.572C194.997 4.932 194.905 5.34 194.905 5.796C194.905 6.244 194.993 6.648 195.169 7.008C195.353 7.368 195.613 7.656 195.949 7.872C196.293 8.08 196.705 8.184 197.185 8.184Z" fill="#949497"/>
<path d="M189.704 9.216C189.152 9.216 188.672 9.12 188.264 8.928C187.864 8.736 187.532 8.48 187.268 8.16C187.004 7.832 186.804 7.472 186.668 7.08C186.54 6.688 186.476 6.296 186.476 5.904V5.688C186.476 5.28 186.54 4.88 186.668 4.488C186.804 4.096 187.004 3.744 187.268 3.432C187.54 3.112 187.876 2.856 188.276 2.664C188.676 2.472 189.144 2.376 189.68 2.376C190.216 2.376 190.696 2.476 191.12 2.676C191.552 2.876 191.896 3.16 192.152 3.528C192.416 3.888 192.564 4.316 192.596 4.812H191.492C191.436 4.412 191.252 4.08 190.94 3.816C190.628 3.544 190.208 3.408 189.68 3.408C189.224 3.408 188.844 3.512 188.54 3.72C188.236 3.928 188.008 4.212 187.856 4.572C187.704 4.932 187.628 5.34 187.628 5.796C187.628 6.236 187.704 6.64 187.856 7.008C188.008 7.368 188.236 7.656 188.54 7.872C188.852 8.08 189.24 8.184 189.704 8.184C190.064 8.184 190.376 8.12 190.64 7.992C190.904 7.864 191.116 7.692 191.276 7.476C191.436 7.26 191.532 7.016 191.564 6.744H192.668C192.644 7.248 192.496 7.684 192.224 8.052C191.96 8.42 191.608 8.708 191.168 8.916C190.736 9.116 190.248 9.216 189.704 9.216Z" fill="#949497"/>
<path d="M182.332 9.216C181.772 9.216 181.288 9.12 180.88 8.928C180.472 8.736 180.14 8.484 179.884 8.172C179.628 7.852 179.436 7.496 179.308 7.104C179.188 6.712 179.128 6.312 179.128 5.904V5.688C179.128 5.272 179.188 4.868 179.308 4.476C179.436 4.084 179.628 3.732 179.884 3.42C180.14 3.1 180.464 2.848 180.856 2.664C181.256 2.472 181.724 2.376 182.26 2.376C182.956 2.376 183.528 2.528 183.976 2.832C184.432 3.128 184.768 3.512 184.984 3.984C185.208 4.456 185.32 4.96 185.32 5.496V6.012H179.632V5.148H184.48L184.216 5.616C184.216 5.16 184.144 4.768 184 4.44C183.856 4.104 183.64 3.844 183.352 3.66C183.064 3.476 182.7 3.384 182.26 3.384C181.804 3.384 181.424 3.488 181.12 3.696C180.824 3.904 180.6 4.188 180.448 4.548C180.304 4.908 180.232 5.324 180.232 5.796C180.232 6.252 180.304 6.664 180.448 7.032C180.6 7.392 180.832 7.68 181.144 7.896C181.456 8.104 181.852 8.208 182.332 8.208C182.836 8.208 183.244 8.096 183.556 7.872C183.876 7.648 184.068 7.388 184.132 7.092H185.212C185.124 7.532 184.948 7.912 184.684 8.232C184.42 8.552 184.088 8.796 183.688 8.964C183.288 9.132 182.836 9.216 182.332 9.216Z" fill="#949497"/>
<path d="M175.275 9.192C174.435 9.192 173.783 9.012 173.319 8.652C172.863 8.292 172.627 7.8 172.611 7.176H173.691C173.707 7.424 173.831 7.66 174.063 7.884C174.303 8.1 174.707 8.208 175.275 8.208C175.787 8.208 176.179 8.108 176.451 7.908C176.723 7.7 176.859 7.448 176.859 7.152C176.859 6.888 176.759 6.684 176.559 6.54C176.359 6.388 176.035 6.288 175.587 6.24L174.891 6.168C174.283 6.104 173.787 5.924 173.403 5.628C173.019 5.324 172.827 4.9 172.827 4.356C172.827 3.948 172.931 3.6 173.139 3.312C173.347 3.016 173.635 2.792 174.003 2.64C174.371 2.48 174.795 2.4 175.275 2.4C175.995 2.4 176.579 2.56 177.027 2.88C177.475 3.2 177.707 3.676 177.723 4.308H176.643C176.635 4.052 176.515 3.836 176.283 3.66C176.059 3.476 175.723 3.384 175.275 3.384C174.827 3.384 174.487 3.476 174.255 3.66C174.023 3.844 173.907 4.076 173.907 4.356C173.907 4.596 173.987 4.788 174.147 4.932C174.315 5.076 174.587 5.168 174.963 5.208L175.659 5.28C176.347 5.352 176.899 5.544 177.315 5.856C177.731 6.16 177.939 6.592 177.939 7.152C177.939 7.552 177.823 7.908 177.591 8.22C177.367 8.524 177.055 8.764 176.655 8.94C176.255 9.108 175.795 9.192 175.275 9.192Z" fill="#949497"/>
<path d="M164.886 9.216C164.23 9.216 163.67 9.104 163.206 8.88C162.75 8.648 162.378 8.336 162.09 7.944C161.81 7.552 161.606 7.1 161.478 6.588C161.35 6.068 161.286 5.52 161.286 4.944V4.296C161.286 3.488 161.41 2.76 161.658 2.112C161.914 1.464 162.306 0.952 162.834 0.576C163.37 0.192 164.054 0 164.886 0C165.718 0 166.398 0.192 166.926 0.576C167.454 0.952 167.842 1.464 168.09 2.112C168.346 2.76 168.474 3.488 168.474 4.296V4.944C168.474 5.52 168.41 6.068 168.282 6.588C168.154 7.1 167.946 7.552 167.658 7.944C167.378 8.336 167.01 8.648 166.554 8.88C166.098 9.104 165.542 9.216 164.886 9.216ZM164.886 8.16C165.718 8.16 166.326 7.88 166.71 7.32C167.102 6.752 167.298 5.856 167.298 4.632C167.298 3.352 167.098 2.436 166.698 1.884C166.306 1.332 165.702 1.056 164.886 1.056C164.062 1.056 163.45 1.332 163.05 1.884C162.658 2.436 162.462 3.344 162.462 4.608C162.462 5.84 162.658 6.74 163.05 7.308C163.442 7.876 164.054 8.16 164.886 8.16Z" fill="#949497"/>
<path d="M156.7 9.24C156.06 9.24 155.524 9.128 155.092 8.904C154.668 8.68 154.328 8.376 154.072 7.992C153.824 7.6 153.644 7.152 153.532 6.648C153.428 6.144 153.376 5.616 153.376 5.064V4.488C153.376 3.104 153.72 2.04 154.408 1.296C155.096 0.543999 156.092 0.167999 157.396 0.167999C157.708 0.167999 157.972 0.175999 158.188 0.192C158.404 0.207999 158.64 0.231999 158.896 0.263999V1.248C158.632 1.216 158.388 1.192 158.164 1.176C157.94 1.16 157.668 1.152 157.348 1.152C156.62 1.152 156.044 1.288 155.62 1.56C155.196 1.832 154.892 2.224 154.708 2.736C154.524 3.24 154.432 3.852 154.432 4.572V5.112L154.144 6.18C154.152 5.548 154.272 5.024 154.504 4.608C154.744 4.192 155.068 3.88 155.476 3.672C155.892 3.464 156.368 3.36 156.904 3.36C157.528 3.36 158.056 3.488 158.488 3.744C158.92 3.992 159.244 4.336 159.46 4.776C159.684 5.216 159.796 5.716 159.796 6.276C159.796 6.844 159.68 7.352 159.448 7.8C159.216 8.248 158.868 8.6 158.404 8.856C157.948 9.112 157.38 9.24 156.7 9.24ZM156.7 8.232C157.14 8.232 157.508 8.148 157.804 7.98C158.1 7.812 158.32 7.584 158.464 7.296C158.616 7 158.692 6.66 158.692 6.276C158.692 5.892 158.62 5.552 158.476 5.256C158.332 4.96 158.116 4.732 157.828 4.572C157.548 4.404 157.2 4.32 156.784 4.32C156.376 4.32 156.008 4.396 155.68 4.548C155.36 4.7 155.108 4.924 154.924 5.22C154.74 5.508 154.648 5.864 154.648 6.288C154.648 6.64 154.72 6.964 154.864 7.26C155.008 7.556 155.232 7.792 155.536 7.968C155.84 8.144 156.228 8.232 156.7 8.232Z" fill="#949497"/>
<path d="M143.21 9V2.592H144.122V5.34H143.978C143.978 4.708 144.062 4.176 144.23 3.744C144.406 3.304 144.67 2.972 145.022 2.748C145.374 2.516 145.818 2.4 146.354 2.4H146.402C147.21 2.4 147.806 2.652 148.19 3.156C148.582 3.66 148.778 4.388 148.778 5.34V9H147.626V5.1C147.626 4.604 147.486 4.208 147.206 3.912C146.926 3.608 146.542 3.456 146.054 3.456C145.55 3.456 145.142 3.612 144.83 3.924C144.518 4.236 144.362 4.652 144.362 5.172V9H143.21Z" fill="#949497"/>
<path d="M139.831 9V2.592H140.983V9H139.831ZM138.847 3.504V2.592H140.983V3.504H138.847ZM140.155 1.56C139.899 1.56 139.707 1.492 139.579 1.356C139.459 1.22 139.399 1.048 139.399 0.839999C139.399 0.631999 139.459 0.459999 139.579 0.323998C139.707 0.187999 139.899 0.119999 140.155 0.119999C140.411 0.119999 140.599 0.187999 140.719 0.323998C140.847 0.459999 140.911 0.631999 140.911 0.839999C140.911 1.048 140.847 1.22 140.719 1.356C140.599 1.492 140.411 1.56 140.155 1.56Z" fill="#949497"/>
<path d="M129.112 9V2.592H130.024V5.34H129.88C129.88 4.708 129.964 4.176 130.132 3.744C130.308 3.304 130.572 2.972 130.924 2.748C131.276 2.516 131.72 2.4 132.256 2.4H132.304C133.112 2.4 133.708 2.652 134.092 3.156C134.484 3.66 134.68 4.388 134.68 5.34V9H133.528V5.1C133.528 4.604 133.388 4.208 133.108 3.912C132.828 3.608 132.444 3.456 131.956 3.456C131.452 3.456 131.044 3.612 130.732 3.924C130.42 4.236 130.264 4.652 130.264 5.172V9H129.112Z" fill="#949497"/>
<path d="M126.086 9V7.08H125.894V4.86C125.894 4.42 125.778 4.088 125.546 3.864C125.322 3.64 124.99 3.528 124.55 3.528C124.302 3.528 124.046 3.532 123.782 3.54C123.518 3.548 123.266 3.556 123.026 3.564C122.786 3.572 122.578 3.584 122.402 3.6V2.592C122.578 2.576 122.762 2.564 122.954 2.556C123.154 2.54 123.358 2.532 123.566 2.532C123.774 2.524 123.974 2.52 124.166 2.52C124.822 2.52 125.358 2.6 125.774 2.76C126.19 2.912 126.498 3.164 126.698 3.516C126.898 3.868 126.998 4.344 126.998 4.944V9H126.086ZM123.986 9.168C123.506 9.168 123.09 9.088 122.738 8.928C122.394 8.76 122.126 8.52 121.934 8.208C121.75 7.896 121.658 7.52 121.658 7.08C121.658 6.624 121.758 6.244 121.958 5.94C122.166 5.636 122.466 5.408 122.858 5.256C123.25 5.096 123.722 5.016 124.274 5.016H126.014V5.88H124.226C123.762 5.88 123.406 5.992 123.158 6.216C122.91 6.44 122.786 6.728 122.786 7.08C122.786 7.432 122.91 7.716 123.158 7.932C123.406 8.148 123.762 8.256 124.226 8.256C124.498 8.256 124.758 8.208 125.006 8.112C125.254 8.008 125.458 7.84 125.618 7.608C125.786 7.368 125.878 7.04 125.894 6.624L126.206 7.08C126.166 7.536 126.054 7.92 125.87 8.232C125.694 8.536 125.446 8.768 125.126 8.928C124.814 9.088 124.434 9.168 123.986 9.168Z" fill="#949497"/>
<path d="M117.681 9.216C117.129 9.216 116.649 9.12 116.241 8.928C115.841 8.736 115.509 8.48 115.245 8.16C114.981 7.832 114.781 7.472 114.645 7.08C114.517 6.688 114.453 6.296 114.453 5.904V5.688C114.453 5.28 114.517 4.88 114.645 4.488C114.781 4.096 114.981 3.744 115.245 3.432C115.517 3.112 115.853 2.856 116.253 2.664C116.653 2.472 117.121 2.376 117.657 2.376C118.193 2.376 118.673 2.476 119.097 2.676C119.529 2.876 119.873 3.16 120.129 3.528C120.393 3.888 120.541 4.316 120.573 4.812H119.469C119.413 4.412 119.229 4.08 118.917 3.816C118.605 3.544 118.185 3.408 117.657 3.408C117.201 3.408 116.821 3.512 116.517 3.72C116.213 3.928 115.985 4.212 115.833 4.572C115.681 4.932 115.605 5.34 115.605 5.796C115.605 6.236 115.681 6.64 115.833 7.008C115.985 7.368 116.213 7.656 116.517 7.872C116.829 8.08 117.217 8.184 117.681 8.184C118.041 8.184 118.353 8.12 118.617 7.992C118.881 7.864 119.093 7.692 119.253 7.476C119.413 7.26 119.509 7.016 119.541 6.744H120.645C120.621 7.248 120.473 7.684 120.201 8.052C119.937 8.42 119.585 8.708 119.145 8.916C118.713 9.116 118.225 9.216 117.681 9.216Z" fill="#949497"/>
<path d="M106.887 9.192C106.127 9.192 105.543 8.944 105.135 8.448C104.727 7.952 104.523 7.236 104.523 6.3V2.58H105.675V6.528C105.675 7.032 105.811 7.428 106.083 7.716C106.355 7.996 106.723 8.136 107.187 8.136C107.667 8.136 108.059 7.984 108.363 7.68C108.667 7.368 108.819 6.944 108.819 6.408V2.58H109.971V9H109.059V6.252H109.203C109.203 6.884 109.119 7.42 108.951 7.86C108.783 8.292 108.531 8.624 108.195 8.856C107.867 9.08 107.447 9.192 106.935 9.192H106.887Z" fill="#949497"/>
<path d="M99.5096 9.216C98.9496 9.216 98.4576 9.12 98.0336 8.928C97.6096 8.736 97.2496 8.484 96.9536 8.172C96.6656 7.852 96.4456 7.496 96.2936 7.104C96.1496 6.712 96.0776 6.312 96.0776 5.904V5.688C96.0776 5.28 96.1536 4.88 96.3056 4.488C96.4576 4.088 96.6816 3.732 96.9776 3.42C97.2736 3.1 97.6336 2.848 98.0576 2.664C98.4816 2.472 98.9656 2.376 99.5096 2.376C100.054 2.376 100.538 2.472 100.962 2.664C101.386 2.848 101.746 3.1 102.042 3.42C102.338 3.732 102.562 4.088 102.714 4.488C102.866 4.88 102.942 5.28 102.942 5.688V5.904C102.942 6.312 102.866 6.712 102.714 7.104C102.57 7.496 102.35 7.852 102.054 8.172C101.766 8.484 101.41 8.736 100.986 8.928C100.562 9.12 100.07 9.216 99.5096 9.216ZM99.5096 8.184C99.9896 8.184 100.398 8.08 100.734 7.872C101.078 7.656 101.338 7.368 101.514 7.008C101.698 6.648 101.79 6.244 101.79 5.796C101.79 5.34 101.698 4.932 101.514 4.572C101.33 4.212 101.066 3.928 100.722 3.72C100.386 3.512 99.9816 3.408 99.5096 3.408C99.0456 3.408 98.6416 3.512 98.2976 3.72C97.9536 3.928 97.6896 4.212 97.5056 4.572C97.3216 4.932 97.2296 5.34 97.2296 5.796C97.2296 6.244 97.3176 6.648 97.4936 7.008C97.6776 7.368 97.9376 7.656 98.2736 7.872C98.6176 8.08 99.0296 8.184 99.5096 8.184Z" fill="#949497"/>
<path d="M89.6803 11.496V10.464H90.6043C90.8763 10.464 91.1043 10.428 91.2883 10.356C91.4803 10.292 91.6363 10.18 91.7563 10.02C91.8843 9.86 91.9883 9.648 92.0683 9.384L94.0843 2.592H95.2123L93.0763 9.684C92.9483 10.108 92.7683 10.452 92.5363 10.716C92.3043 10.988 92.0203 11.184 91.6843 11.304C91.3563 11.432 90.9723 11.496 90.5323 11.496H89.6803ZM91.6363 8.856V7.896H93.0283V8.856H91.6363ZM91.5163 8.856L89.2243 2.592H90.4003L92.5963 8.856H91.5163Z" fill="#949497"/>
<path d="M83.0483 9.192C82.2083 9.192 81.5563 9.012 81.0923 8.652C80.6363 8.292 80.4003 7.8 80.3843 7.176H81.4643C81.4803 7.424 81.6043 7.66 81.8363 7.884C82.0763 8.1 82.4803 8.208 83.0483 8.208C83.5603 8.208 83.9523 8.108 84.2243 7.908C84.4963 7.7 84.6323 7.448 84.6323 7.152C84.6323 6.888 84.5323 6.684 84.3323 6.54C84.1323 6.388 83.8083 6.288 83.3603 6.24L82.6643 6.168C82.0563 6.104 81.5603 5.924 81.1763 5.628C80.7923 5.324 80.6003 4.9 80.6003 4.356C80.6003 3.948 80.7043 3.6 80.9123 3.312C81.1203 3.016 81.4083 2.792 81.7763 2.64C82.1443 2.48 82.5683 2.4 83.0483 2.4C83.7683 2.4 84.3523 2.56 84.8003 2.88C85.2483 3.2 85.4803 3.676 85.4963 4.308H84.4163C84.4083 4.052 84.2883 3.836 84.0563 3.66C83.8323 3.476 83.4963 3.384 83.0483 3.384C82.6003 3.384 82.2603 3.476 82.0283 3.66C81.7963 3.844 81.6803 4.076 81.6803 4.356C81.6803 4.596 81.7603 4.788 81.9203 4.932C82.0883 5.076 82.3603 5.168 82.7363 5.208L83.4323 5.28C84.1203 5.352 84.6723 5.544 85.0883 5.856C85.5043 6.16 85.7123 6.592 85.7123 7.152C85.7123 7.552 85.5963 7.908 85.3643 8.22C85.1403 8.524 84.8283 8.764 84.4283 8.94C84.0283 9.108 83.5683 9.192 83.0483 9.192Z" fill="#949497"/>
<path d="M77.9219 9V7.08H77.7299V4.86C77.7299 4.42 77.6139 4.088 77.3819 3.864C77.1579 3.64 76.8259 3.528 76.3859 3.528C76.1379 3.528 75.8819 3.532 75.6179 3.54C75.3539 3.548 75.1019 3.556 74.8619 3.564C74.6219 3.572 74.4139 3.584 74.2379 3.6V2.592C74.4139 2.576 74.5979 2.564 74.7899 2.556C74.9899 2.54 75.1939 2.532 75.4019 2.532C75.6099 2.524 75.8099 2.52 76.0019 2.52C76.6579 2.52 77.1939 2.6 77.6099 2.76C78.0259 2.912 78.3339 3.164 78.5339 3.516C78.7339 3.868 78.8339 4.344 78.8339 4.944V9H77.9219ZM75.8219 9.168C75.3419 9.168 74.9259 9.088 74.5739 8.928C74.2299 8.76 73.9619 8.52 73.7699 8.208C73.5859 7.896 73.4939 7.52 73.4939 7.08C73.4939 6.624 73.5939 6.244 73.7939 5.94C74.0019 5.636 74.3019 5.408 74.6939 5.256C75.0859 5.096 75.5579 5.016 76.1099 5.016H77.8499V5.88H76.0619C75.5979 5.88 75.2419 5.992 74.9939 6.216C74.7459 6.44 74.6219 6.728 74.6219 7.08C74.6219 7.432 74.7459 7.716 74.9939 7.932C75.2419 8.148 75.5979 8.256 76.0619 8.256C76.3339 8.256 76.5939 8.208 76.8419 8.112C77.0899 8.008 77.2939 7.84 77.4539 7.608C77.6219 7.368 77.7139 7.04 77.7299 6.624L78.0419 7.08C78.0019 7.536 77.8899 7.92 77.7059 8.232C77.5299 8.536 77.2819 8.768 76.9619 8.928C76.6499 9.088 76.2699 9.168 75.8219 9.168Z" fill="#949497"/>
<path d="M68.7021 9.072C68.2221 9.072 67.8061 9.004 67.4541 8.868C67.1101 8.732 66.8421 8.5 66.6501 8.172C66.4661 7.836 66.3741 7.384 66.3741 6.816V0.647999H67.4781V6.96C67.4781 7.304 67.5701 7.572 67.7541 7.764C67.9461 7.948 68.2141 8.04 68.5581 8.04H69.6861V9.072H68.7021ZM65.2701 3.456V2.592H69.6861V3.456H65.2701Z" fill="#949497"/>
<path d="M61.8725 9.192C61.0325 9.192 60.3805 9.012 59.9165 8.652C59.4605 8.292 59.2245 7.8 59.2085 7.176H60.2885C60.3045 7.424 60.4285 7.66 60.6605 7.884C60.9005 8.1 61.3045 8.208 61.8725 8.208C62.3845 8.208 62.7765 8.108 63.0485 7.908C63.3205 7.7 63.4565 7.448 63.4565 7.152C63.4565 6.888 63.3565 6.684 63.1565 6.54C62.9565 6.388 62.6325 6.288 62.1845 6.24L61.4885 6.168C60.8805 6.104 60.3845 5.924 60.0005 5.628C59.6165 5.324 59.4245 4.9 59.4245 4.356C59.4245 3.948 59.5285 3.6 59.7365 3.312C59.9445 3.016 60.2325 2.792 60.6005 2.64C60.9685 2.48 61.3925 2.4 61.8725 2.4C62.5925 2.4 63.1765 2.56 63.6245 2.88C64.0725 3.2 64.3045 3.676 64.3205 4.308H63.2405C63.2325 4.052 63.1125 3.836 62.8805 3.66C62.6565 3.476 62.3205 3.384 61.8725 3.384C61.4245 3.384 61.0845 3.476 60.8525 3.66C60.6205 3.844 60.5045 4.076 60.5045 4.356C60.5045 4.596 60.5845 4.788 60.7445 4.932C60.9125 5.076 61.1845 5.168 61.5605 5.208L62.2565 5.28C62.9445 5.352 63.4965 5.544 63.9125 5.856C64.3285 6.16 64.5365 6.592 64.5365 7.152C64.5365 7.552 64.4205 7.908 64.1885 8.22C63.9645 8.524 63.6525 8.764 63.2525 8.94C62.8525 9.108 62.3925 9.192 61.8725 9.192Z" fill="#949497"/>
<path d="M56.7461 9V7.08H56.5541V4.86C56.5541 4.42 56.4381 4.088 56.2061 3.864C55.9821 3.64 55.6501 3.528 55.2101 3.528C54.9621 3.528 54.7061 3.532 54.4421 3.54C54.1781 3.548 53.9261 3.556 53.6861 3.564C53.4461 3.572 53.2381 3.584 53.0621 3.6V2.592C53.2381 2.576 53.4221 2.564 53.6141 2.556C53.8141 2.54 54.0181 2.532 54.2261 2.532C54.4341 2.524 54.6341 2.52 54.8261 2.52C55.4821 2.52 56.0181 2.6 56.4341 2.76C56.8501 2.912 57.1581 3.164 57.3581 3.516C57.5581 3.868 57.6581 4.344 57.6581 4.944V9H56.7461ZM54.6461 9.168C54.1661 9.168 53.7501 9.088 53.3981 8.928C53.0541 8.76 52.7861 8.52 52.5941 8.208C52.4101 7.896 52.3181 7.52 52.3181 7.08C52.3181 6.624 52.4181 6.244 52.6181 5.94C52.8261 5.636 53.1261 5.408 53.5181 5.256C53.9101 5.096 54.3821 5.016 54.9341 5.016H56.6741V5.88H54.8861C54.4221 5.88 54.0661 5.992 53.8181 6.216C53.5701 6.44 53.4461 6.728 53.4461 7.08C53.4461 7.432 53.5701 7.716 53.8181 7.932C54.0661 8.148 54.4221 8.256 54.8861 8.256C55.1581 8.256 55.4181 8.208 55.6661 8.112C55.9141 8.008 56.1181 7.84 56.2781 7.608C56.4461 7.368 56.5381 7.04 56.5541 6.624L56.8661 7.08C56.8261 7.536 56.7141 7.92 56.5301 8.232C56.3541 8.536 56.1061 8.768 55.7861 8.928C55.4741 9.088 55.0941 9.168 54.6461 9.168Z" fill="#949497"/>
<path d="M48.5147 9V2.268C48.5147 1.556 48.7027 1.032 49.0787 0.695997C49.4547 0.359998 50.0067 0.191998 50.7347 0.191998H51.5267V1.152H50.5427C50.2467 1.152 50.0187 1.236 49.8587 1.404C49.6987 1.564 49.6187 1.788 49.6187 2.076V9H48.5147ZM47.6267 3.528V2.664H51.6467V3.528H47.6267Z" fill="#949497"/>
<path d="M41.2826 9.192C40.4426 9.192 39.7906 9.012 39.3266 8.652C38.8706 8.292 38.6346 7.8 38.6186 7.176H39.6986C39.7146 7.424 39.8386 7.66 40.0706 7.884C40.3106 8.1 40.7146 8.208 41.2826 8.208C41.7946 8.208 42.1866 8.108 42.4586 7.908C42.7306 7.7 42.8666 7.448 42.8666 7.152C42.8666 6.888 42.7666 6.684 42.5666 6.54C42.3666 6.388 42.0426 6.288 41.5946 6.24L40.8986 6.168C40.2906 6.104 39.7946 5.924 39.4106 5.628C39.0266 5.324 38.8346 4.9 38.8346 4.356C38.8346 3.948 38.9386 3.6 39.1466 3.312C39.3546 3.016 39.6426 2.792 40.0106 2.64C40.3786 2.48 40.8026 2.4 41.2826 2.4C42.0026 2.4 42.5866 2.56 43.0346 2.88C43.4826 3.2 43.7146 3.676 43.7306 4.308H42.6506C42.6426 4.052 42.5226 3.836 42.2906 3.66C42.0666 3.476 41.7306 3.384 41.2826 3.384C40.8346 3.384 40.4946 3.476 40.2626 3.66C40.0306 3.844 39.9146 4.076 39.9146 4.356C39.9146 4.596 39.9946 4.788 40.1546 4.932C40.3226 5.076 40.5946 5.168 40.9706 5.208L41.6666 5.28C42.3546 5.352 42.9066 5.544 43.3226 5.856C43.7386 6.16 43.9466 6.592 43.9466 7.152C43.9466 7.552 43.8306 7.908 43.5986 8.22C43.3746 8.524 43.0626 8.764 42.6626 8.94C42.2626 9.108 41.8026 9.192 41.2826 9.192Z" fill="#949497"/>
<path d="M36.1563 9V7.08H35.9643V4.86C35.9643 4.42 35.8483 4.088 35.6163 3.864C35.3923 3.64 35.0603 3.528 34.6203 3.528C34.3723 3.528 34.1163 3.532 33.8523 3.54C33.5883 3.548 33.3363 3.556 33.0963 3.564C32.8563 3.572 32.6483 3.584 32.4723 3.6V2.592C32.6483 2.576 32.8323 2.564 33.0243 2.556C33.2243 2.54 33.4283 2.532 33.6363 2.532C33.8443 2.524 34.0443 2.52 34.2363 2.52C34.8923 2.52 35.4283 2.6 35.8443 2.76C36.2603 2.912 36.5683 3.164 36.7683 3.516C36.9683 3.868 37.0683 4.344 37.0683 4.944V9H36.1563ZM34.0563 9.168C33.5763 9.168 33.1603 9.088 32.8083 8.928C32.4643 8.76 32.1963 8.52 32.0043 8.208C31.8203 7.896 31.7283 7.52 31.7283 7.08C31.7283 6.624 31.8283 6.244 32.0283 5.94C32.2363 5.636 32.5363 5.408 32.9283 5.256C33.3203 5.096 33.7923 5.016 34.3443 5.016H36.0843V5.88H34.2963C33.8323 5.88 33.4763 5.992 33.2283 6.216C32.9803 6.44 32.8563 6.728 32.8563 7.08C32.8563 7.432 32.9803 7.716 33.2283 7.932C33.4763 8.148 33.8323 8.256 34.2963 8.256C34.5683 8.256 34.8283 8.208 35.0763 8.112C35.3243 8.008 35.5283 7.84 35.6883 7.608C35.8563 7.368 35.9483 7.04 35.9643 6.624L36.2763 7.08C36.2363 7.536 36.1243 7.92 35.9403 8.232C35.7643 8.536 35.5163 8.768 35.1963 8.928C34.8843 9.088 34.5043 9.168 34.0563 9.168Z" fill="#949497"/>
<path d="M24.9262 9.216C24.3662 9.216 23.8822 9.12 23.4742 8.928C23.0662 8.736 22.7342 8.484 22.4782 8.172C22.2222 7.852 22.0302 7.496 21.9022 7.104C21.7822 6.712 21.7222 6.312 21.7222 5.904V5.688C21.7222 5.272 21.7822 4.868 21.9022 4.476C22.0302 4.084 22.2222 3.732 22.4782 3.42C22.7342 3.1 23.0582 2.848 23.4502 2.664C23.8502 2.472 24.3182 2.376 24.8542 2.376C25.5502 2.376 26.1222 2.528 26.5702 2.832C27.0262 3.128 27.3622 3.512 27.5782 3.984C27.8022 4.456 27.9142 4.96 27.9142 5.496V6.012H22.2262V5.148H27.0742L26.8102 5.616C26.8102 5.16 26.7382 4.768 26.5942 4.44C26.4502 4.104 26.2342 3.844 25.9462 3.66C25.6582 3.476 25.2942 3.384 24.8542 3.384C24.3982 3.384 24.0182 3.488 23.7142 3.696C23.4182 3.904 23.1942 4.188 23.0422 4.548C22.8982 4.908 22.8262 5.324 22.8262 5.796C22.8262 6.252 22.8982 6.664 23.0422 7.032C23.1942 7.392 23.4262 7.68 23.7382 7.896C24.0502 8.104 24.4462 8.208 24.9262 8.208C25.4302 8.208 25.8382 8.096 26.1502 7.872C26.4702 7.648 26.6622 7.388 26.7262 7.092H27.8062C27.7182 7.532 27.5422 7.912 27.2782 8.232C27.0142 8.552 26.6822 8.796 26.2822 8.964C25.8822 9.132 25.4302 9.216 24.9262 9.216Z" fill="#949497"/>
<path d="M13.9287 11.4V2.592H14.8407V5.364L14.6247 5.34C14.6647 4.652 14.8087 4.092 15.0567 3.66C15.3127 3.22 15.6447 2.896 16.0527 2.688C16.4607 2.48 16.9047 2.376 17.3847 2.376C17.8487 2.376 18.2687 2.464 18.6447 2.64C19.0287 2.816 19.3567 3.056 19.6287 3.36C19.9007 3.664 20.1087 4.016 20.2527 4.416C20.3967 4.816 20.4687 5.24 20.4687 5.688V5.904C20.4687 6.352 20.3927 6.776 20.2407 7.176C20.0887 7.576 19.8727 7.928 19.5927 8.232C19.3207 8.536 18.9927 8.776 18.6087 8.952C18.2327 9.128 17.8167 9.216 17.3607 9.216C16.9047 9.216 16.4687 9.116 16.0527 8.916C15.6367 8.716 15.2927 8.392 15.0207 7.944C14.7487 7.496 14.5927 6.908 14.5527 6.18L15.0807 7.14V11.4H13.9287ZM17.1807 8.208C17.6127 8.208 17.9887 8.108 18.3087 7.908C18.6287 7.7 18.8767 7.416 19.0527 7.056C19.2287 6.688 19.3167 6.268 19.3167 5.796C19.3167 5.316 19.2287 4.896 19.0527 4.536C18.8767 4.176 18.6287 3.896 18.3087 3.696C17.9887 3.488 17.6127 3.384 17.1807 3.384C16.7967 3.384 16.4407 3.472 16.1127 3.648C15.7847 3.816 15.5207 4.064 15.3207 4.392C15.1287 4.712 15.0327 5.1 15.0327 5.556V6.108C15.0327 6.548 15.1327 6.924 15.3327 7.236C15.5327 7.548 15.7967 7.788 16.1247 7.956C16.4527 8.124 16.8047 8.208 17.1807 8.208Z" fill="#949497"/>
<path d="M6.93423 11.496V10.464H7.85823C8.13023 10.464 8.35823 10.428 8.54223 10.356C8.73423 10.292 8.89023 10.18 9.01023 10.02C9.13823 9.86 9.24223 9.648 9.32223 9.384L11.3382 2.592H12.4662L10.3302 9.684C10.2022 10.108 10.0222 10.452 9.79023 10.716C9.55823 10.988 9.27423 11.184 8.93823 11.304C8.61023 11.432 8.22623 11.496 7.78623 11.496H6.93423ZM8.89023 8.856V7.896H10.2822V8.856H8.89023ZM8.77023 8.856L6.47823 2.592H7.65423L9.85023 8.856H8.77023Z" fill="#949497"/>
<path d="M2.664 9V1.056H3.84V9H2.664ZM0 1.296V0.240002H6.504V1.296H0Z" fill="#949497"/>
</svg>
