<svg width="225" height="24" viewBox="0 0 225 24" fill="none" xmlns="http://www.w3.org/2000/svg">
<path d="M223.013 18.624C221.685 18.624 220.613 18.464 219.797 18.144C218.981 17.808 218.381 17.256 217.997 16.488C217.629 15.704 217.445 14.648 217.445 13.32V1.752H221.021V13.464C221.021 14.088 221.181 14.568 221.501 14.904C221.837 15.224 222.309 15.384 222.917 15.384H224.861V18.624H223.013ZM215.453 8.112V5.304H224.861V8.112H215.453Z" fill="white"/>
<path d="M208.693 18.864C206.821 18.864 205.357 18.48 204.301 17.712C203.245 16.944 202.685 15.864 202.621 14.472H206.029C206.093 14.888 206.341 15.264 206.773 15.6C207.221 15.92 207.885 16.08 208.765 16.08C209.437 16.08 209.989 15.968 210.421 15.744C210.869 15.504 211.093 15.168 211.093 14.736C211.093 14.352 210.925 14.048 210.589 13.824C210.253 13.584 209.653 13.416 208.789 13.32L207.757 13.224C206.173 13.064 204.981 12.624 204.181 11.904C203.397 11.184 203.005 10.264 203.005 9.144C203.005 8.216 203.237 7.44 203.701 6.816C204.165 6.192 204.805 5.72 205.621 5.4C206.453 5.08 207.397 4.92 208.453 4.92C210.149 4.92 211.517 5.296 212.557 6.048C213.597 6.784 214.141 7.856 214.189 9.264H210.781C210.717 8.832 210.493 8.472 210.109 8.184C209.725 7.88 209.157 7.728 208.405 7.728C207.813 7.728 207.341 7.84 206.989 8.064C206.637 8.288 206.461 8.592 206.461 8.976C206.461 9.344 206.613 9.624 206.917 9.816C207.221 10.008 207.717 10.144 208.405 10.224L209.437 10.32C211.053 10.496 212.309 10.944 213.205 11.664C214.101 12.384 214.549 13.352 214.549 14.568C214.549 15.448 214.309 16.216 213.829 16.872C213.349 17.512 212.669 18.008 211.789 18.36C210.909 18.696 209.877 18.864 208.693 18.864Z" fill="white"/>
<path d="M194.748 18.912C193.628 18.912 192.636 18.72 191.772 18.336C190.924 17.952 190.212 17.44 189.636 16.8C189.076 16.144 188.644 15.416 188.34 14.616C188.052 13.8 187.908 12.968 187.908 12.12V11.64C187.908 10.76 188.052 9.92 188.34 9.12C188.644 8.304 189.076 7.576 189.636 6.936C190.196 6.296 190.892 5.792 191.724 5.424C192.572 5.04 193.532 4.848 194.604 4.848C196.012 4.848 197.196 5.168 198.156 5.808C199.132 6.432 199.876 7.256 200.388 8.28C200.9 9.288 201.156 10.392 201.156 11.592V12.888H189.516V10.704H198.828L197.58 11.712C197.58 10.928 197.468 10.256 197.244 9.696C197.02 9.136 196.684 8.712 196.236 8.424C195.804 8.12 195.26 7.968 194.604 7.968C193.932 7.968 193.364 8.12 192.9 8.424C192.436 8.728 192.084 9.176 191.844 9.768C191.604 10.344 191.484 11.056 191.484 11.904C191.484 12.688 191.596 13.376 191.82 13.968C192.044 14.544 192.396 14.992 192.876 15.312C193.356 15.632 193.98 15.792 194.748 15.792C195.452 15.792 196.028 15.656 196.476 15.384C196.924 15.112 197.228 14.776 197.388 14.376H200.916C200.724 15.256 200.348 16.04 199.788 16.728C199.228 17.416 198.524 17.952 197.676 18.336C196.828 18.72 195.852 18.912 194.748 18.912Z" fill="white"/>
<path d="M179.248 18.456V3.888H183.184V18.456H179.248ZM174.328 4.368V0.936001H188.128V4.368H174.328Z" fill="white"/>
<path d="M159.062 18.888C158.134 18.888 157.286 18.72 156.518 18.384C155.766 18.048 155.11 17.584 154.55 16.992C153.99 16.384 153.558 15.672 153.254 14.856C152.966 14.04 152.822 13.16 152.822 12.216V11.664C152.822 10.72 152.958 9.84 153.23 9.024C153.518 8.208 153.926 7.496 154.454 6.888C154.998 6.264 155.646 5.784 156.398 5.448C157.15 5.096 157.99 4.92 158.918 4.92C159.974 4.92 160.886 5.152 161.654 5.616C162.422 6.064 163.022 6.736 163.454 7.632C163.886 8.512 164.126 9.6 164.174 10.896L163.166 9.96V0.936001H167.03V18.456H163.982V13.008H164.51C164.462 14.256 164.198 15.32 163.718 16.2C163.254 17.08 162.622 17.752 161.822 18.216C161.022 18.664 160.102 18.888 159.062 18.888ZM160.022 15.672C160.614 15.672 161.15 15.544 161.63 15.288C162.126 15.016 162.518 14.624 162.806 14.112C163.11 13.6 163.262 12.984 163.262 12.264V11.376C163.262 10.672 163.11 10.08 162.806 9.6C162.502 9.12 162.102 8.752 161.606 8.496C161.11 8.24 160.574 8.112 159.998 8.112C159.358 8.112 158.782 8.28 158.27 8.616C157.774 8.936 157.382 9.384 157.094 9.96C156.806 10.52 156.662 11.176 156.662 11.928C156.662 12.696 156.806 13.36 157.094 13.92C157.382 14.48 157.782 14.912 158.294 15.216C158.806 15.52 159.382 15.672 160.022 15.672Z" fill="white"/>
<path d="M144.686 18.912C143.566 18.912 142.574 18.72 141.71 18.336C140.862 17.952 140.15 17.44 139.574 16.8C139.014 16.144 138.582 15.416 138.278 14.616C137.99 13.8 137.846 12.968 137.846 12.12V11.64C137.846 10.76 137.99 9.92 138.278 9.12C138.582 8.304 139.014 7.576 139.574 6.936C140.134 6.296 140.83 5.792 141.662 5.424C142.51 5.04 143.47 4.848 144.542 4.848C145.95 4.848 147.134 5.168 148.094 5.808C149.07 6.432 149.814 7.256 150.326 8.28C150.838 9.288 151.094 10.392 151.094 11.592V12.888H139.454V10.704H148.766L147.518 11.712C147.518 10.928 147.406 10.256 147.182 9.696C146.958 9.136 146.622 8.712 146.174 8.424C145.742 8.12 145.198 7.968 144.542 7.968C143.87 7.968 143.302 8.12 142.838 8.424C142.374 8.728 142.022 9.176 141.782 9.768C141.542 10.344 141.422 11.056 141.422 11.904C141.422 12.688 141.534 13.376 141.758 13.968C141.982 14.544 142.334 14.992 142.814 15.312C143.294 15.632 143.918 15.792 144.686 15.792C145.39 15.792 145.966 15.656 146.414 15.384C146.862 15.112 147.166 14.776 147.326 14.376H150.854C150.662 15.256 150.286 16.04 149.726 16.728C149.166 17.416 148.462 17.952 147.614 18.336C146.766 18.72 145.79 18.912 144.686 18.912Z" fill="white"/>
<path d="M129.709 18.912C128.589 18.912 127.597 18.72 126.733 18.336C125.885 17.952 125.173 17.44 124.597 16.8C124.037 16.144 123.605 15.416 123.301 14.616C123.013 13.8 122.869 12.968 122.869 12.12V11.64C122.869 10.76 123.013 9.92 123.301 9.12C123.605 8.304 124.037 7.576 124.597 6.936C125.157 6.296 125.853 5.792 126.685 5.424C127.533 5.04 128.493 4.848 129.565 4.848C130.973 4.848 132.157 5.168 133.117 5.808C134.093 6.432 134.837 7.256 135.349 8.28C135.861 9.288 136.117 10.392 136.117 11.592V12.888H124.477V10.704H133.789L132.541 11.712C132.541 10.928 132.429 10.256 132.205 9.696C131.981 9.136 131.645 8.712 131.197 8.424C130.765 8.12 130.221 7.968 129.565 7.968C128.893 7.968 128.325 8.12 127.861 8.424C127.397 8.728 127.045 9.176 126.805 9.768C126.565 10.344 126.445 11.056 126.445 11.904C126.445 12.688 126.557 13.376 126.781 13.968C127.005 14.544 127.357 14.992 127.837 15.312C128.317 15.632 128.941 15.792 129.709 15.792C130.413 15.792 130.989 15.656 131.437 15.384C131.885 15.112 132.189 14.776 132.349 14.376H135.877C135.685 15.256 135.309 16.04 134.749 16.728C134.189 17.416 133.485 17.952 132.637 18.336C131.789 18.72 130.813 18.912 129.709 18.912Z" fill="white"/>
<path d="M106.81 23.256V5.304H109.858V10.992L109.45 10.968C109.514 9.656 109.786 8.552 110.266 7.656C110.746 6.744 111.394 6.064 112.21 5.616C113.026 5.152 113.946 4.92 114.97 4.92C115.882 4.92 116.706 5.088 117.442 5.424C118.194 5.76 118.834 6.232 119.362 6.84C119.906 7.432 120.314 8.136 120.586 8.952C120.874 9.752 121.018 10.632 121.018 11.592V12.144C121.018 13.088 120.882 13.976 120.61 14.808C120.338 15.624 119.938 16.336 119.41 16.944C118.898 17.552 118.266 18.032 117.514 18.384C116.778 18.72 115.93 18.888 114.97 18.888C113.978 18.888 113.082 18.688 112.282 18.288C111.498 17.872 110.866 17.248 110.386 16.416C109.906 15.568 109.642 14.496 109.594 13.2L110.65 14.64V23.256H106.81ZM113.89 15.672C114.546 15.672 115.114 15.512 115.594 15.192C116.09 14.872 116.474 14.424 116.746 13.848C117.018 13.272 117.154 12.608 117.154 11.856C117.154 11.104 117.018 10.448 116.746 9.888C116.474 9.328 116.098 8.896 115.618 8.592C115.138 8.272 114.562 8.112 113.89 8.112C113.314 8.112 112.77 8.248 112.258 8.52C111.746 8.792 111.33 9.184 111.01 9.696C110.706 10.192 110.554 10.8 110.554 11.52V12.408C110.554 13.096 110.714 13.688 111.034 14.184C111.37 14.664 111.794 15.032 112.306 15.288C112.818 15.544 113.346 15.672 113.89 15.672Z" fill="white"/>
<path d="M97.1143 18.912C95.5303 18.912 94.1943 18.664 93.1063 18.168C92.0183 17.656 91.1943 16.968 90.6343 16.104C90.0743 15.224 89.7943 14.216 89.7943 13.08H93.6103C93.6103 13.528 93.7303 13.944 93.9703 14.328C94.2263 14.712 94.6103 15.024 95.1223 15.264C95.6343 15.488 96.2983 15.6 97.1143 15.6C97.8503 15.6 98.4663 15.504 98.9623 15.312C99.4583 15.12 99.8343 14.856 100.09 14.52C100.346 14.168 100.474 13.768 100.474 13.32C100.474 12.76 100.234 12.32 99.7543 12C99.2743 11.664 98.4983 11.448 97.4263 11.352L96.1063 11.232C94.3623 11.088 92.9703 10.544 91.9303 9.6C90.8903 8.656 90.3703 7.408 90.3703 5.856C90.3703 4.736 90.6343 3.768 91.1623 2.952C91.7063 2.136 92.4583 1.512 93.4183 1.08C94.3783 0.632001 95.5143 0.408001 96.8263 0.408001C98.2023 0.408001 99.3783 0.648001 100.354 1.128C101.346 1.592 102.106 2.256 102.634 3.12C103.162 3.968 103.426 4.968 103.426 6.12H99.5863C99.5863 5.688 99.4823 5.296 99.2743 4.944C99.0663 4.576 98.7543 4.28 98.3383 4.056C97.9383 3.832 97.4343 3.72 96.8263 3.72C96.2503 3.72 95.7623 3.816 95.3623 4.008C94.9783 4.2 94.6903 4.464 94.4983 4.8C94.3063 5.12 94.2103 5.472 94.2103 5.856C94.2103 6.352 94.3863 6.784 94.7383 7.152C95.0903 7.52 95.6663 7.736 96.4663 7.8L97.8103 7.92C99.0903 8.032 100.218 8.312 101.194 8.76C102.17 9.192 102.93 9.792 103.474 10.56C104.034 11.312 104.314 12.232 104.314 13.32C104.314 14.44 104.018 15.424 103.426 16.272C102.85 17.104 102.026 17.752 100.954 18.216C99.8823 18.68 98.6023 18.912 97.1143 18.912Z" fill="white"/>
<path d="M74.4941 23.688C73.8541 23.688 73.1981 23.664 72.5261 23.616C71.8541 23.568 71.2381 23.504 70.6781 23.424V20.184C71.2381 20.264 71.8541 20.328 72.5261 20.376C73.2141 20.44 73.8381 20.472 74.3981 20.472C75.4381 20.472 76.2781 20.352 76.9181 20.112C77.5741 19.872 78.0541 19.504 78.3581 19.008C78.6621 18.528 78.8141 17.904 78.8141 17.136V14.52L79.5101 12.984C79.4781 14.152 79.2461 15.152 78.8141 15.984C78.3981 16.816 77.8141 17.456 77.0621 17.904C76.3101 18.336 75.4141 18.552 74.3741 18.552C73.4781 18.552 72.6621 18.392 71.9261 18.072C71.2061 17.736 70.5901 17.272 70.0781 16.68C69.5661 16.088 69.1741 15.4 68.9021 14.616C68.6301 13.816 68.4941 12.952 68.4941 12.024V11.472C68.4941 10.544 68.6381 9.68 68.9261 8.88C69.2141 8.08 69.6301 7.384 70.1741 6.792C70.7181 6.2 71.3661 5.744 72.1181 5.424C72.8701 5.088 73.7021 4.92 74.6141 4.92C75.6701 4.92 76.5821 5.152 77.3501 5.616C78.1341 6.08 78.7501 6.76 79.1981 7.656C79.6461 8.552 79.8861 9.632 79.9181 10.896L79.3901 11.04V5.304H82.4381V16.896C82.4381 18.512 82.1501 19.816 81.5741 20.808C80.9981 21.8 80.1181 22.528 78.9341 22.992C77.7661 23.456 76.2861 23.688 74.4941 23.688ZM75.5741 15.312C76.1661 15.312 76.7021 15.184 77.1821 14.928C77.6621 14.656 78.0381 14.272 78.3101 13.776C78.5981 13.28 78.7421 12.68 78.7421 11.976V11.28C78.7421 10.592 78.5901 10.016 78.2861 9.552C77.9981 9.072 77.6141 8.712 77.1341 8.472C76.6541 8.216 76.1421 8.088 75.5981 8.088C74.9581 8.088 74.3901 8.24 73.8941 8.544C73.3981 8.848 73.0141 9.272 72.7421 9.816C72.4701 10.36 72.3341 11 72.3341 11.736C72.3341 12.488 72.4701 13.136 72.7421 13.68C73.0301 14.208 73.4141 14.616 73.8941 14.904C74.3901 15.176 74.9501 15.312 75.5741 15.312Z" fill="white"/>
<path d="M53.6539 18.456V5.304H56.7019V10.944H56.4859C56.4859 9.6 56.6539 8.48 56.9899 7.584C57.3419 6.688 57.8699 6.016 58.5739 5.568C59.2779 5.12 60.1339 4.896 61.1419 4.896H61.3099C62.8459 4.896 64.0139 5.4 64.8139 6.408C65.6299 7.4 66.0379 8.912 66.0379 10.944V18.456H62.1979V10.728C62.1979 10.024 61.9899 9.448 61.5739 9C61.1579 8.552 60.5979 8.328 59.8939 8.328C59.1739 8.328 58.5899 8.56 58.1419 9.024C57.7099 9.472 57.4939 10.064 57.4939 10.8V18.456H53.6539Z" fill="white"/>
<path d="M46.2622 18.456V5.304H50.1022V18.456H46.2622ZM44.5102 8.136V5.304H50.1022V8.136H44.5102ZM47.7502 4.008C47.0302 4.008 46.4942 3.824 46.1422 3.456C45.8062 3.072 45.6382 2.592 45.6382 2.016C45.6382 1.424 45.8062 0.944 46.1422 0.576C46.4942 0.192 47.0302 0 47.7502 0C48.4702 0 48.9982 0.192 49.3342 0.576C49.6862 0.944 49.8622 1.424 49.8622 2.016C49.8622 2.592 49.6862 3.072 49.3342 3.456C48.9982 3.824 48.4702 4.008 47.7502 4.008Z" fill="white"/>
<path d="M28.7632 23.256V5.304H31.8112V10.992L31.4032 10.968C31.4672 9.656 31.7392 8.552 32.2192 7.656C32.6992 6.744 33.3472 6.064 34.1632 5.616C34.9792 5.152 35.8992 4.92 36.9232 4.92C37.8352 4.92 38.6592 5.088 39.3952 5.424C40.1472 5.76 40.7872 6.232 41.3152 6.84C41.8592 7.432 42.2672 8.136 42.5392 8.952C42.8272 9.752 42.9712 10.632 42.9712 11.592V12.144C42.9712 13.088 42.8352 13.976 42.5632 14.808C42.2912 15.624 41.8912 16.336 41.3632 16.944C40.8512 17.552 40.2192 18.032 39.4672 18.384C38.7312 18.72 37.8832 18.888 36.9232 18.888C35.9312 18.888 35.0352 18.688 34.2352 18.288C33.4512 17.872 32.8192 17.248 32.3392 16.416C31.8592 15.568 31.5952 14.496 31.5472 13.2L32.6032 14.64V23.256H28.7632ZM35.8432 15.672C36.4992 15.672 37.0672 15.512 37.5472 15.192C38.0432 14.872 38.4272 14.424 38.6992 13.848C38.9712 13.272 39.1072 12.608 39.1072 11.856C39.1072 11.104 38.9712 10.448 38.6992 9.888C38.4272 9.328 38.0512 8.896 37.5712 8.592C37.0912 8.272 36.5152 8.112 35.8432 8.112C35.2672 8.112 34.7232 8.248 34.2112 8.52C33.6992 8.792 33.2832 9.184 32.9632 9.696C32.6592 10.192 32.5072 10.8 32.5072 11.52V12.408C32.5072 13.096 32.6672 13.688 32.9872 14.184C33.3232 14.664 33.7472 15.032 34.2592 15.288C34.7712 15.544 35.2992 15.672 35.8432 15.672Z" fill="white"/>
<path d="M14.9317 23.664V20.4H17.6677C18.0837 20.4 18.4357 20.344 18.7237 20.232C19.0117 20.136 19.2437 19.968 19.4197 19.728C19.5957 19.488 19.7397 19.16 19.8517 18.744L23.0917 5.304H26.7397L23.0677 19.512C22.8117 20.536 22.4517 21.352 21.9877 21.96C21.5397 22.568 20.9317 23 20.1637 23.256C19.4117 23.528 18.4517 23.664 17.2837 23.664H14.9317ZM19.0597 18.168V15.168H21.8437V18.168H19.0597ZM17.4757 18.168L13.4437 5.304H17.3077L21.1237 18.168H17.4757Z" fill="white"/>
<path d="M4.92017 18.456V3.888H8.85617V18.456H4.92017ZM0.000167847 4.368V0.936001H13.8002V4.368H0.000167847Z" fill="white"/>
</svg>
